<svg version="1.1" id="Layer_1" xmlns="http://www.w3.org/2000/svg" xmlns:xlink="http://www.w3.org/1999/xlink" x="0px" y="0px"
	 width="100%" viewBox="0 0 968 968" enable-background="new 0 0 968 968" xml:space="preserve">
<path fill="#EADEFA" opacity="1.000000" stroke="none" 
	d="
M969.000000,441.000000 
	C969.000000,470.020905 969.000000,499.041779 968.634155,528.214966 
	C967.845642,529.544312 967.178528,530.693298 967.039185,531.903015 
	C965.956421,541.307434 965.595581,550.841858 963.826782,560.109985 
	C960.655273,576.727783 956.885315,593.242493 952.950439,609.700989 
	C946.549622,636.474365 936.837341,662.134460 925.348938,687.082520 
	C912.864563,714.193420 898.471741,740.320923 880.774292,764.398438 
	C869.408142,779.862122 857.346558,794.866638 844.818237,809.406128 
	C836.228821,819.374390 826.550049,828.456543 816.904480,837.447998 
	C806.229187,847.399475 795.440247,857.309143 783.981567,866.322754 
	C763.169983,882.693481 741.163147,897.413208 717.817688,909.968445 
	C692.873108,923.383667 667.182068,935.242554 640.180420,943.927368 
	C625.214111,948.741150 610.052673,953.030518 594.803833,956.857361 
	C583.067444,959.802734 571.107788,961.970581 559.152832,963.896790 
	C549.820984,965.400391 540.339111,965.963257 530.940002,967.079956 
	C530.227295,967.164612 529.643616,968.334473 529.000000,969.000000 
	C499.979095,969.000000 470.958221,969.000000 441.785065,968.634155 
	C440.455688,967.845642 439.306702,967.178528 438.097015,967.039246 
	C428.692627,965.956421 419.158142,965.595703 409.890015,963.826782 
	C393.272217,960.655273 376.757568,956.885315 360.299011,952.950439 
	C333.525665,946.549622 307.865509,936.837463 282.917480,925.348999 
	C255.806625,912.864624 229.679062,898.471924 205.601517,880.774353 
	C190.137894,869.408264 175.133423,857.346680 160.593964,844.818298 
	C150.625702,836.228943 141.543503,826.550171 132.552002,816.904602 
	C122.600594,806.229248 112.690941,795.440308 103.677338,783.981628 
	C87.306549,763.170044 72.586716,741.163208 60.031548,717.817749 
	C46.616352,692.873169 34.757195,667.182129 26.072678,640.180298 
	C21.259087,625.213928 16.969471,610.052612 13.142634,594.803772 
	C10.197268,583.067383 8.029484,571.107727 6.103252,559.152771 
	C4.599665,549.820923 4.036825,540.339111 2.920124,530.940063 
	C2.835447,530.227356 1.665482,529.643677 0.999999,529.000000 
	C1.000000,499.979095 1.000000,470.958221 1.365831,441.785065 
	C2.154291,440.455994 2.821481,439.307312 2.960742,438.097870 
	C4.043582,428.693481 4.404344,419.158997 6.173170,409.890869 
	C9.344697,393.273041 13.115126,376.758514 17.049511,360.299835 
	C23.449638,333.526215 33.162575,307.866333 44.650673,282.918243 
	C57.134773,255.807190 71.528175,229.679871 89.225342,205.602066 
	C100.591255,190.138214 112.653023,175.133865 125.181328,160.594299 
	C133.770721,150.626038 143.449493,141.543839 153.095078,132.552338 
	C163.770416,122.600868 174.559494,112.691338 186.018082,103.677597 
	C206.829514,87.306572 228.836563,72.586952 252.181961,60.031624 
	C277.126556,46.616253 302.817719,34.757347 329.819550,26.072683 
	C344.785950,21.258997 359.947296,16.969463 375.196167,13.142629 
	C386.932556,10.197285 398.892181,8.029488 410.847168,6.103253 
	C420.179077,4.599662 429.660919,4.036827 439.059998,2.920134 
	C439.772644,2.835462 440.356354,1.665492 441.000000,1.000004 
	C470.020905,1.000000 499.041779,1.000000 528.214966,1.365861 
	C529.544312,2.154332 530.693237,2.821451 531.902954,2.960745 
	C541.307373,4.043598 550.841797,4.404404 560.109924,6.173234 
	C576.727722,9.344755 593.242371,13.114815 609.700928,17.049591 
	C636.474304,23.450340 662.134338,33.162727 687.082336,44.651016 
	C714.193298,57.135284 740.320801,71.528130 764.398376,89.225571 
	C779.862122,100.591644 794.866455,112.653351 809.405945,125.181648 
	C819.374146,133.771088 828.456421,143.449783 837.447998,153.095322 
	C847.399475,163.770660 857.309143,174.559616 866.322693,186.018356 
	C882.693298,206.829987 897.413269,228.836716 909.968506,252.182205 
	C923.383606,277.126831 935.242554,302.817902 943.927246,329.819580 
	C948.741028,344.785950 953.030579,359.947266 956.857422,375.196136 
	C959.802795,386.932526 961.970520,398.892181 963.896729,410.847168 
	C965.400330,420.179077 965.963196,429.660919 967.079956,439.059967 
	C967.164612,439.772614 968.334534,440.356323 969.000000,441.000000 
M631.952576,542.079224 
	C631.903748,530.056030 631.854919,518.032837 631.956726,505.082062 
	C631.906494,492.056244 631.856201,479.030426 631.954590,465.077332 
	C631.954590,456.786499 631.954590,448.495697 631.954590,440.204865 
	C632.150391,440.176697 632.346191,440.148560 632.541992,440.120392 
	C634.340454,446.079559 636.138916,452.038696 637.923401,458.802429 
	C641.558228,471.978943 645.193054,485.155457 648.840332,499.111084 
	C652.362793,512.132324 655.885254,525.153564 659.545349,538.984131 
	C667.029907,566.759521 674.562561,594.522156 681.929260,622.328796 
	C682.721130,625.317688 684.014587,626.198303 687.032471,626.172302 
	C703.692749,626.028748 720.356567,625.981689 737.015381,626.195679 
	C740.852112,626.244934 742.329285,625.119446 743.398682,621.334717 
	C758.815491,566.773682 774.437805,512.270569 790.025452,457.757782 
	C790.670410,455.502319 791.459412,453.288055 792.181274,451.054626 
	C792.533691,451.127441 792.886108,451.200256 793.238525,451.273071 
	C793.238525,509.490906 793.238525,567.708740 793.238525,625.723633 
	C812.928528,625.723633 832.165222,625.723633 851.755066,625.723633 
	C851.755066,624.038818 851.755127,622.731873 851.755066,621.424988 
	C851.753845,547.614380 851.754150,473.803711 851.740356,399.993073 
	C851.740112,398.668610 851.571777,397.344116 851.701599,395.103180 
	C851.635010,385.413483 851.568481,375.723816 851.721497,365.115875 
	C851.721497,358.216553 851.721497,351.317230 851.721497,344.077118 
	C847.496948,344.077118 843.748230,344.077118 839.074097,343.916260 
	C823.752808,343.909515 808.431152,343.960052 793.110657,343.844696 
	C790.255066,343.823212 788.720276,344.413635 787.807129,347.514221 
	C782.739075,364.722015 777.390930,381.847351 771.882324,399.714478 
	C768.154724,412.104065 764.427124,424.493652 760.253296,437.448944 
	C756.195190,450.966400 752.137085,464.483856 747.702393,478.640076 
	C740.349426,502.417877 732.996460,526.195679 725.277588,551.156616 
	C719.528442,533.296448 714.171204,516.653687 708.814209,499.261444 
	C704.553955,486.173615 700.293701,473.085785 696.046570,459.217560 
	C693.812988,452.095795 691.670654,444.943634 689.314697,437.862579 
	C687.650513,432.860596 685.696777,427.954926 684.069519,422.221497 
	C680.695618,411.481750 677.321777,400.741974 673.961609,389.230652 
	C670.673340,379.141602 667.385071,369.052582 664.083435,358.184418 
	C662.936035,354.385193 662.005493,350.498169 660.522583,346.834747 
	C660.010010,345.568604 658.146423,344.062622 656.861328,344.026031 
	C649.581360,343.818848 642.289612,344.024323 634.075867,343.929688 
	C619.154541,343.929688 604.233215,343.929688 589.137939,343.929688 
	C589.137939,357.072845 589.137939,369.538788 588.998535,382.932251 
	C589.044922,394.622925 589.091370,406.313629 588.998291,418.931915 
	C589.044617,431.622803 589.091003,444.313721 588.996826,457.932037 
	C589.043518,470.955994 589.090149,483.979980 588.995972,497.931519 
	C589.044189,510.957367 589.092407,523.983215 588.999084,537.935669 
	C589.047180,549.959045 589.095337,561.982361 588.997253,574.932190 
	C589.045227,584.622681 589.093140,594.313171 588.993469,604.930115 
	C588.993469,611.834106 588.993469,618.738159 588.993469,625.895264 
	C603.309265,625.895264 617.160583,625.895264 631.531067,625.935852 
	C631.625244,625.631714 631.719421,625.327576 631.954590,624.092651 
	C631.904968,607.063416 631.855286,590.034241 631.954285,572.077271 
	C631.903687,562.387024 631.853149,552.696716 631.952576,542.079224 
M419.780121,429.258301 
	C417.130768,420.840149 414.481415,412.421997 411.827698,403.252380 
	C408.165833,391.503479 404.503998,379.754608 400.840393,367.252869 
	C398.828735,360.602142 396.754608,353.969360 394.838867,347.291107 
	C394.159454,344.922699 393.122528,343.705444 390.395020,343.837128 
	C384.939819,344.100555 379.468170,344.022461 373.075531,343.934784 
	C357.936462,343.934784 342.797363,343.934784 326.911774,343.934784 
	C330.816132,354.826385 334.432159,364.913757 338.061798,375.755981 
	C342.005310,386.903259 345.948822,398.050507 349.926971,409.955017 
	C353.656067,420.636993 357.385162,431.318970 361.130157,442.751190 
	C364.390045,451.889862 367.649902,461.028534 370.941711,470.923920 
	C373.552094,478.302979 376.162476,485.682037 378.843506,493.840118 
	C382.172363,503.331665 385.501190,512.823181 388.891357,523.062561 
	C392.878204,534.387085 396.865051,545.711548 400.910248,557.811462 
	C404.991913,569.543030 409.073547,581.274536 413.178772,593.750122 
	C416.430389,602.841736 419.682007,611.933350 422.966400,621.827942 
	C423.583008,624.031860 423.814209,626.197510 427.190277,626.158386 
	C441.473907,625.992859 455.761322,626.155945 470.045013,625.993103 
	C471.246277,625.979370 473.146606,624.676270 473.515198,623.570068 
	C479.527771,605.526245 485.345490,587.417480 491.707031,568.764343 
	C497.104523,552.177246 502.502014,535.590210 508.285889,518.371216 
	C513.037476,503.905243 517.789062,489.439270 522.873230,474.403717 
	C526.901733,461.935974 530.930176,449.468231 535.381165,436.393646 
	C540.293274,421.272034 545.205383,406.150421 550.608521,390.510834 
	C555.197571,376.093964 559.822693,361.688263 564.282898,347.231628 
	C564.541077,346.394684 563.459045,345.144318 562.074341,343.930328 
	C548.936707,343.919434 535.797852,343.822693 522.663147,344.013885 
	C521.141846,344.036011 518.671997,345.349335 518.283020,346.581940 
	C513.538452,361.618225 509.101044,376.751434 504.189575,392.456909 
	C499.931824,406.575317 495.674072,420.693726 491.096527,435.443054 
	C486.672821,450.278809 482.249115,465.114594 477.350464,480.488098 
	C473.703125,492.596222 470.055786,504.704376 466.091614,517.444031 
	C462.986145,527.537231 459.880707,537.630371 456.418671,548.882568 
	C453.327606,539.207764 450.579620,530.606934 447.835114,521.253784 
	C444.069000,509.111023 440.302887,496.968262 436.367554,484.046173 
	C433.386566,474.647308 430.405579,465.248474 427.345642,455.041199 
	C424.828644,446.695709 422.311615,438.350220 419.780121,429.258301 
M245.504715,591.090515 
	C245.402863,580.387268 245.300995,569.684021 245.504761,558.099182 
	C245.405090,545.060181 245.305435,532.021179 245.511688,518.100464 
	C245.412598,503.079254 245.313492,488.058044 245.522278,472.138794 
	C245.424759,458.774567 245.327255,445.410309 245.539139,431.146698 
	C245.436310,421.418152 245.333481,411.689575 245.515167,401.121277 
	C245.515167,395.202148 245.515167,389.283020 245.515167,382.875916 
	C253.076553,382.875916 260.037140,382.875916 267.926514,383.015167 
	C283.516296,383.015167 299.106049,383.015167 314.779175,383.015167 
	C314.779175,369.647827 314.779175,356.912598 314.779175,344.075012 
	C312.964935,344.075012 311.480682,344.075012 309.068481,343.935333 
	C292.711761,343.985107 276.355042,344.034882 259.070801,343.938629 
	C241.380051,343.987396 223.689285,344.036163 205.071457,343.936462 
	C176.224670,343.936462 147.377869,343.936462 118.475113,343.936462 
	C118.475113,357.331573 118.475113,369.903381 118.475113,382.864349 
	C133.501984,382.864349 148.251404,382.864349 163.929260,383.002197 
	C171.852295,383.002197 179.775330,383.002197 188.380280,383.002197 
	C188.380280,390.114563 188.380280,396.559143 188.200912,403.923523 
	C188.256622,417.610962 188.312332,431.298401 188.186935,445.909760 
	C188.248016,455.612549 188.309113,465.315338 188.201080,475.937897 
	C188.259750,489.295746 188.318420,502.653625 188.202667,516.931152 
	C188.262268,531.621765 188.321854,546.312439 188.207275,561.925171 
	C188.266449,575.283325 188.325638,588.641418 188.208694,602.921936 
	C188.208694,610.481445 188.208694,618.040955 188.208694,625.906738 
	C193.830353,625.906738 198.915131,625.906738 204.927094,626.057068 
	C218.317017,626.057068 231.706955,626.057068 245.205734,626.057068 
	C245.205734,614.199158 245.205734,603.086182 245.504715,591.090515 
z"/>
<path fill="#000000" opacity="1.000000" stroke="none" 
	d="
M440.531342,1.000004 
	C440.356354,1.665492 439.772644,2.835462 439.059998,2.920134 
	C429.660919,4.036827 420.179077,4.599662 410.847168,6.103253 
	C398.892181,8.029488 386.932556,10.197285 375.196167,13.142629 
	C359.947296,16.969463 344.785950,21.258997 329.819550,26.072683 
	C302.817719,34.757347 277.126556,46.616253 252.181961,60.031624 
	C228.836563,72.586952 206.829514,87.306572 186.018082,103.677597 
	C174.559494,112.691338 163.770416,122.600868 153.095078,132.552338 
	C143.449493,141.543839 133.770721,150.626038 125.181328,160.594299 
	C112.653023,175.133865 100.591255,190.138214 89.225342,205.602066 
	C71.528175,229.679871 57.134773,255.807190 44.650673,282.918243 
	C33.162575,307.866333 23.449638,333.526215 17.049511,360.299835 
	C13.115126,376.758514 9.344697,393.273041 6.173170,409.890869 
	C4.404344,419.158997 4.043582,428.693481 2.960742,438.097870 
	C2.821481,439.307312 2.154291,440.455994 1.365831,441.316406 
	C1.000000,294.406250 1.000000,147.812500 1.000000,1.000000 
	C147.354156,1.000000 293.708405,1.000000 440.531342,1.000004 
z"/>
<path fill="#000000" opacity="1.000000" stroke="none" 
	d="
M969.000000,440.531311 
	C968.334534,440.356323 967.164612,439.772614 967.079956,439.059967 
	C965.963196,429.660919 965.400330,420.179077 963.896729,410.847168 
	C961.970520,398.892181 959.802795,386.932526 956.857422,375.196136 
	C953.030579,359.947266 948.741028,344.785950 943.927246,329.819580 
	C935.242554,302.817902 923.383606,277.126831 909.968506,252.182205 
	C897.413269,228.836716 882.693298,206.829987 866.322693,186.018356 
	C857.309143,174.559616 847.399475,163.770660 837.447998,153.095322 
	C828.456421,143.449783 819.374146,133.771088 809.405945,125.181648 
	C794.866455,112.653351 779.862122,100.591644 764.398376,89.225571 
	C740.320801,71.528130 714.193298,57.135284 687.082336,44.651016 
	C662.134338,33.162727 636.474304,23.450340 609.700928,17.049591 
	C593.242371,13.114815 576.727722,9.344755 560.109924,6.173234 
	C550.841797,4.404404 541.307373,4.043598 531.902954,2.960745 
	C530.693237,2.821451 529.544312,2.154332 528.683594,1.365861 
	C675.593750,1.000000 822.187439,1.000000 969.000000,1.000000 
	C969.000000,147.354156 969.000000,293.708405 969.000000,440.531311 
z"/>
<path fill="#000000" opacity="1.000000" stroke="none" 
	d="
M529.468628,969.000000 
	C529.643616,968.334473 530.227295,967.164612 530.940002,967.079956 
	C540.339111,965.963257 549.820984,965.400391 559.152832,963.896790 
	C571.107788,961.970581 583.067444,959.802734 594.803833,956.857361 
	C610.052673,953.030518 625.214111,948.741150 640.180420,943.927368 
	C667.182068,935.242554 692.873108,923.383667 717.817688,909.968445 
	C741.163147,897.413208 763.169983,882.693481 783.981567,866.322754 
	C795.440247,857.309143 806.229187,847.399475 816.904480,837.447998 
	C826.550049,828.456543 836.228821,819.374390 844.818237,809.406128 
	C857.346558,794.866638 869.408142,779.862122 880.774292,764.398438 
	C898.471741,740.320923 912.864563,714.193420 925.348938,687.082520 
	C936.837341,662.134460 946.549622,636.474365 952.950439,609.700989 
	C956.885315,593.242493 960.655273,576.727783 963.826782,560.109985 
	C965.595581,550.841858 965.956421,541.307434 967.039185,531.903015 
	C967.178528,530.693298 967.845642,529.544312 968.634155,528.683594 
	C969.000000,675.593750 969.000000,822.187500 969.000000,969.000000 
	C822.645874,969.000000 676.291565,969.000000 529.468628,969.000000 
z"/>
<path fill="#000000" opacity="1.000000" stroke="none" 
	d="
M0.999999,529.468628 
	C1.665482,529.643677 2.835447,530.227356 2.920124,530.940063 
	C4.036825,540.339111 4.599665,549.820923 6.103252,559.152771 
	C8.029484,571.107727 10.197268,583.067383 13.142634,594.803772 
	C16.969471,610.052612 21.259087,625.213928 26.072678,640.180298 
	C34.757195,667.182129 46.616352,692.873169 60.031548,717.817749 
	C72.586716,741.163208 87.306549,763.170044 103.677338,783.981628 
	C112.690941,795.440308 122.600594,806.229248 132.552002,816.904602 
	C141.543503,826.550171 150.625702,836.228943 160.593964,844.818298 
	C175.133423,857.346680 190.137894,869.408264 205.601517,880.774353 
	C229.679062,898.471924 255.806625,912.864624 282.917480,925.348999 
	C307.865509,936.837463 333.525665,946.549622 360.299011,952.950439 
	C376.757568,956.885315 393.272217,960.655273 409.890015,963.826782 
	C419.158142,965.595703 428.692627,965.956421 438.097015,967.039246 
	C439.306702,967.178528 440.455688,967.845642 441.316406,968.634155 
	C294.406250,969.000000 147.812500,969.000000 1.000000,969.000000 
	C1.000000,822.645874 1.000000,676.291565 0.999999,529.468628 
z"/>
<path fill="#1636F1" opacity="1.000000" stroke="none" 
	d="
M708.813904,500.010864 
	C714.171204,516.653687 719.528442,533.296448 725.277588,551.156616 
	C732.996460,526.195679 740.349426,502.417877 748.232727,478.273773 
	C750.553772,476.724426 752.471130,475.694366 754.115051,474.333923 
	C766.373230,464.189331 778.542847,453.937622 790.806763,443.799957 
	C807.538757,429.968964 824.277405,416.144592 841.142578,402.477081 
	C844.275635,399.937958 848.019775,398.152771 851.481873,396.019653 
	C851.571777,397.344116 851.740112,398.668610 851.740356,399.993073 
	C851.754150,473.803711 851.753845,547.614380 851.755066,621.424988 
	C851.755127,622.731873 851.755066,624.038818 851.755066,625.723633 
	C832.165222,625.723633 812.928528,625.723633 793.238525,625.723633 
	C793.238525,567.708740 793.238525,509.490906 793.238525,451.273071 
	C792.886108,451.200256 792.533691,451.127441 792.181274,451.054626 
	C791.459412,453.288055 790.670410,455.502319 790.025452,457.757782 
	C774.437805,512.270569 758.815491,566.773682 743.398682,621.334717 
	C742.329285,625.119446 740.852112,626.244934 737.015381,626.195679 
	C720.356567,625.981689 703.692749,626.028748 687.032471,626.172302 
	C684.014587,626.198303 682.721130,625.317688 681.929260,622.328796 
	C674.562561,594.522156 667.029907,566.759521 659.840332,538.455200 
	C670.829529,529.378174 681.472656,520.765015 692.239624,512.309509 
	C697.648193,508.062012 703.281982,504.101288 708.813904,500.010864 
z"/>
<path fill="#BC17D3" opacity="1.000000" stroke="none" 
	d="
M259.998291,344.084656 
	C276.355042,344.034882 292.711761,343.985107 309.488434,344.344238 
	C309.131470,345.798126 308.526978,347.052582 307.551147,347.855927 
	C296.991180,356.549408 286.300140,365.085114 275.814178,373.866028 
	C272.608398,376.550507 269.921997,379.855225 266.997742,382.875916 
	C260.037140,382.875916 253.076553,382.875916 245.515167,382.875916 
	C245.515167,389.283020 245.515167,395.202148 245.061356,401.573425 
	C243.155884,402.774200 241.513565,403.291534 240.281693,404.306854 
	C226.280380,415.847137 212.407379,427.544098 198.333572,438.994507 
	C195.357117,441.416138 191.707489,443.010376 188.368042,444.985840 
	C188.312332,431.298401 188.256622,417.610962 188.630966,403.450317 
	C191.151154,401.706543 193.394791,400.630737 195.301712,399.127747 
	C200.361526,395.139648 205.264481,390.953094 210.250275,386.870483 
	C225.595123,374.305603 240.979355,361.788422 256.255219,349.140320 
	C257.823242,347.842010 258.765594,345.787994 259.998291,344.084656 
z"/>
<path fill="#532BE6" opacity="1.000000" stroke="none" 
	d="
M413.155212,593.006104 
	C409.073547,581.274536 404.991913,569.543030 401.256531,557.408813 
	C402.887543,556.350464 404.344482,555.903381 405.430603,555.007080 
	C417.674377,544.902344 429.822540,534.681396 442.111511,524.632385 
	C443.683136,523.347168 445.908936,522.861938 447.831665,522.006104 
	C450.579620,530.606934 453.327606,539.207764 456.418671,548.882568 
	C459.880707,537.630371 462.986145,527.537231 466.641052,517.152710 
	C468.652313,516.128540 470.312500,515.637390 471.545197,514.625427 
	C483.826599,504.543549 495.931366,494.243378 508.325348,484.303284 
	C512.726868,480.773224 517.783203,478.059601 522.540649,474.973297 
	C517.789062,489.439270 513.037476,503.905243 507.716675,518.687256 
	C505.549194,519.717346 503.698517,520.123169 502.391937,521.193359 
	C490.078705,531.278381 477.882294,541.505859 465.604889,551.634949 
	C451.156860,563.554932 436.704529,575.470581 422.149689,587.259216 
	C419.402313,589.484436 416.165955,591.106018 413.155212,593.006104 
z"/>
<path fill="#432EE9" opacity="1.000000" stroke="none" 
	d="
M637.937317,457.997864 
	C636.138916,452.038696 634.340454,446.079559 632.541992,440.120392 
	C632.346191,440.148560 632.150391,440.176697 631.954590,440.204865 
	C631.954590,448.495697 631.954590,456.786499 631.509277,465.541382 
	C629.711914,466.502136 628.114380,466.691711 627.047424,467.544922 
	C619.547058,473.543030 612.246033,479.792358 604.698364,485.728729 
	C599.667297,489.685699 594.334534,493.258942 589.136780,497.003937 
	C589.090149,483.979980 589.043518,470.955994 589.422913,457.459351 
	C590.993042,456.395508 592.289246,455.987762 593.257324,455.184509 
	C601.806396,448.090942 610.261963,440.884735 618.813293,433.793915 
	C631.955933,422.895874 645.080200,411.973297 658.363525,401.248505 
	C663.340576,397.230042 668.740662,393.735626 673.947876,390.002258 
	C677.321777,400.741974 680.695618,411.481750 683.627930,422.658936 
	C682.014709,423.695160 680.691528,424.108521 679.695190,424.922089 
	C671.772827,431.391083 663.998779,438.044250 656.004639,444.421997 
	C650.118408,449.118011 643.969299,453.484497 637.937317,457.997864 
z"/>
<path fill="#4F2BE6" opacity="1.000000" stroke="none" 
	d="
M673.954712,389.616455 
	C668.740662,393.735626 663.340576,397.230042 658.363525,401.248505 
	C645.080200,411.973297 631.955933,422.895874 618.813293,433.793915 
	C610.261963,440.884735 601.806396,448.090942 593.257324,455.184509 
	C592.289246,455.987762 590.993042,456.395508 589.493164,456.995636 
	C589.091003,444.313721 589.044617,431.622803 589.424255,418.459106 
	C593.638000,415.147644 597.533569,412.440887 601.195007,409.447662 
	C617.829041,395.849548 634.357910,382.122742 651.015991,368.554443 
	C655.202637,365.144318 659.727417,362.149323 664.096802,358.963531 
	C667.385071,369.052582 670.673340,379.141602 673.954712,389.616455 
z"/>
<path fill="#1D35F0" opacity="1.000000" stroke="none" 
	d="
M851.591736,395.561401 
	C848.019775,398.152771 844.275635,399.937958 841.142578,402.477081 
	C824.277405,416.144592 807.538757,429.968964 790.806763,443.799957 
	C778.542847,453.937622 766.373230,464.189331 754.115051,474.333923 
	C752.471130,475.694366 750.553772,476.724426 748.421021,477.954407 
	C752.137085,464.483856 756.195190,450.966400 760.845337,437.165955 
	C762.179443,436.542664 763.032166,436.339050 763.647156,435.841614 
	C774.326782,427.203125 785.003113,418.560120 795.628052,409.854523 
	C811.886230,396.533478 828.068420,383.119385 844.385132,369.870819 
	C846.440613,368.201782 849.114502,367.294403 851.501953,366.034119 
	C851.568481,375.723816 851.635010,385.413483 851.591736,395.561401 
z"/>
<path fill="#462DE8" opacity="1.000000" stroke="none" 
	d="
M413.166992,593.378113 
	C416.165955,591.106018 419.402313,589.484436 422.149689,587.259216 
	C436.704529,575.470581 451.156860,563.554932 465.604889,551.634949 
	C477.882294,541.505859 490.078705,531.278381 502.391937,521.193359 
	C503.698517,520.123169 505.549194,519.717346 507.523499,519.003235 
	C502.502014,535.590210 497.104523,552.177246 491.255737,568.771973 
	C489.349609,569.219543 487.573456,569.267517 486.487885,570.157654 
	C468.891144,584.586304 451.423767,599.172607 433.816833,613.588623 
	C430.430023,616.361694 426.573517,618.561035 422.933655,621.025024 
	C419.682007,611.933350 416.430389,602.841736 413.166992,593.378113 
z"/>
<path fill="#991ED9" opacity="1.000000" stroke="none" 
	d="
M188.381439,561.003052 
	C188.321854,546.312439 188.262268,531.621765 188.633728,516.456909 
	C190.418716,515.411865 192.003967,515.122192 193.091095,514.227356 
	C205.301620,504.176300 217.339844,493.913849 229.637146,483.971405 
	C234.559082,479.992004 240.006287,476.662262 245.214386,473.036835 
	C245.313492,488.058044 245.412598,503.079254 245.033173,518.551880 
	C242.787231,519.817322 240.753448,520.305115 239.294312,521.496643 
	C227.135101,531.425537 215.192307,541.622131 202.938782,551.431335 
	C198.424850,555.044800 193.253128,557.836487 188.381439,561.003052 
z"/>
<path fill="#D912CD" opacity="1.000000" stroke="none" 
	d="
M163.000809,382.864349 
	C148.251404,382.864349 133.501984,382.864349 118.475113,382.864349 
	C118.475113,369.903381 118.475113,357.331573 118.475113,343.936462 
	C147.377869,343.936462 176.224670,343.936462 205.489471,344.348907 
	C205.249741,345.691711 204.758011,346.824188 203.908951,347.521637 
	C193.852478,355.782654 183.651794,363.870697 173.692856,372.246582 
	C169.861954,375.468506 166.549500,379.306854 163.000809,382.864349 
z"/>
<path fill="#2634EE" opacity="1.000000" stroke="none" 
	d="
M708.814087,499.636169 
	C703.281982,504.101288 697.648193,508.062012 692.239624,512.309509 
	C681.472656,520.765015 670.829529,529.378174 659.771484,538.050537 
	C655.885254,525.153564 652.362793,512.132324 648.996033,498.395752 
	C650.150452,496.576630 651.031982,495.331482 652.166260,494.391205 
	C661.825500,486.384186 671.444824,478.324829 681.259155,470.510986 
	C685.980896,466.751617 691.096313,463.486725 696.033447,459.997925 
	C700.293701,473.085785 704.553955,486.173615 708.814087,499.636169 
z"/>
<path fill="#CB13D0" opacity="1.000000" stroke="none" 
	d="
M163.465027,382.933289 
	C166.549500,379.306854 169.861954,375.468506 173.692856,372.246582 
	C183.651794,363.870697 193.852478,355.782654 203.908951,347.521637 
	C204.758011,346.824188 205.249741,345.691711 205.953003,344.423157 
	C223.689285,344.036163 241.380051,343.987396 259.534546,344.011658 
	C258.765594,345.787994 257.823242,347.842010 256.255219,349.140320 
	C240.979355,361.788422 225.595123,374.305603 210.250275,386.870483 
	C205.264481,390.953094 200.361526,395.139648 195.301712,399.127747 
	C193.394791,400.630737 191.151154,401.706543 188.720642,402.990387 
	C188.380280,396.559143 188.380280,390.114563 188.380280,383.002197 
	C179.775330,383.002197 171.852295,383.002197 163.465027,382.933289 
z"/>
<path fill="#5C28E4" opacity="1.000000" stroke="none" 
	d="
M664.090088,358.573975 
	C659.727417,362.149323 655.202637,365.144318 651.015991,368.554443 
	C634.357910,382.122742 617.829041,395.849548 601.195007,409.447662 
	C597.533569,412.440887 593.638000,415.147644 589.494019,417.995300 
	C589.091370,406.313629 589.044922,394.622925 589.423950,382.459595 
	C590.621399,381.732819 591.558105,381.677704 592.141113,381.195282 
	C604.364746,371.081299 616.585754,360.963226 628.707214,350.727386 
	C631.022766,348.772034 632.914612,346.314911 635.001892,344.089294 
	C642.289612,344.024323 649.581360,343.818848 656.861328,344.026031 
	C658.146423,344.062622 660.010010,345.568604 660.522583,346.834747 
	C662.005493,350.498169 662.936035,354.385193 664.090088,358.573975 
z"/>
<path fill="#2B38EE" opacity="1.000000" stroke="none" 
	d="
M851.611694,365.575012 
	C849.114502,367.294403 846.440613,368.201782 844.385132,369.870819 
	C828.068420,383.119385 811.886230,396.533478 795.628052,409.854523 
	C785.003113,418.560120 774.326782,427.203125 763.647156,435.841614 
	C763.032166,436.339050 762.179443,436.542664 761.068481,436.883118 
	C764.427124,424.493652 768.154724,412.104065 772.384216,399.356476 
	C776.159790,396.929688 779.682556,395.166931 782.665100,392.740265 
	C797.184387,380.926971 811.614197,369.001587 825.954590,356.971558 
	C830.818787,352.891022 835.328125,348.387390 839.999573,344.077118 
	C843.748230,344.077118 847.496948,344.077118 851.721497,344.077118 
	C851.721497,351.317230 851.721497,358.216553 851.611694,365.575012 
z"/>
<path fill="#A71BD7" opacity="1.000000" stroke="none" 
	d="
M245.368332,472.587830 
	C240.006287,476.662262 234.559082,479.992004 229.637146,483.971405 
	C217.339844,493.913849 205.301620,504.176300 193.091095,514.227356 
	C192.003967,515.122192 190.418716,515.411865 188.720947,515.997070 
	C188.318420,502.653625 188.259750,489.295746 188.642365,475.472595 
	C190.534622,474.358398 192.215942,473.990234 193.401398,473.017670 
	C207.184708,461.709259 220.836182,450.239624 234.663696,438.986084 
	C237.914963,436.340088 241.693680,434.342133 245.229752,432.046082 
	C245.327255,445.410309 245.424759,458.774567 245.368332,472.587830 
z"/>
<path fill="#8A1FDC" opacity="1.000000" stroke="none" 
	d="
M188.294373,561.464111 
	C193.253128,557.836487 198.424850,555.044800 202.938782,551.431335 
	C215.192307,541.622131 227.135101,531.425537 239.294312,521.496643 
	C240.753448,520.305115 242.787231,519.817322 244.880219,518.992798 
	C245.305435,532.021179 245.405090,545.060181 245.044693,558.567932 
	C242.532486,560.381287 240.336075,561.550293 238.451233,563.098633 
	C224.544144,574.522888 210.756577,586.093567 196.780334,597.431946 
	C194.347687,599.405457 191.201477,600.499390 188.384842,601.999634 
	C188.325638,588.641418 188.266449,575.283325 188.294373,561.464111 
z"/>
<path fill="#901FDA" opacity="1.000000" stroke="none" 
	d="
M361.114258,442.000916 
	C357.385162,431.318970 353.656067,420.636993 350.072449,409.262634 
	C361.660278,399.046204 373.026031,389.427887 384.579468,380.040588 
	C389.808075,375.792297 395.409729,372.003143 400.842102,368.005676 
	C404.503998,379.754608 408.165833,391.503479 411.458527,403.628235 
	C409.863495,404.381470 408.372253,404.433899 407.452087,405.185516 
	C395.700378,414.783997 384.083344,424.547638 372.307617,434.116180 
	C368.774017,436.987518 364.856110,439.385864 361.114258,442.000916 
z"/>
<path fill="#3630EB" opacity="1.000000" stroke="none" 
	d="
M696.040039,459.607727 
	C691.096313,463.486725 685.980896,466.751617 681.259155,470.510986 
	C671.444824,478.324829 661.825500,486.384186 652.166260,494.391205 
	C651.031982,495.331482 650.150452,496.576630 648.989807,498.006226 
	C645.193054,485.155457 641.558228,471.978943 637.930359,458.400146 
	C643.969299,453.484497 650.118408,449.118011 656.004639,444.421997 
	C663.998779,438.044250 671.772827,431.391083 679.695190,424.922089 
	C680.691528,424.108521 682.014709,423.695160 683.529358,423.051331 
	C685.696777,427.954926 687.650513,432.860596 689.314697,437.862579 
	C691.670654,444.943634 693.812988,452.095795 696.040039,459.607727 
z"/>
<path fill="#6428E3" opacity="1.000000" stroke="none" 
	d="
M447.833374,521.629944 
	C445.908936,522.861938 443.683136,523.347168 442.111511,524.632385 
	C429.822540,534.681396 417.674377,544.902344 405.430603,555.007080 
	C404.344482,555.903381 402.887543,556.350464 401.227356,557.021118 
	C396.865051,545.711548 392.878204,534.387085 389.054504,522.388916 
	C401.457062,511.667511 413.632294,501.539886 425.979126,491.626007 
	C429.225464,489.019348 433.003113,487.074371 436.536774,484.825500 
	C440.302887,496.968262 444.069000,509.111023 447.833374,521.629944 
z"/>
<path fill="#9F1CD8" opacity="1.000000" stroke="none" 
	d="
M400.841248,367.629272 
	C395.409729,372.003143 389.808075,375.792297 384.579468,380.040588 
	C373.026031,389.427887 361.660278,399.046204 350.055115,408.883972 
	C345.948822,398.050507 342.005310,386.903259 338.397003,375.334351 
	C349.312164,366.285706 359.932800,357.707550 370.426453,348.976776 
	C371.932678,347.723633 372.826202,345.734100 374.003296,344.085388 
	C379.468170,344.022461 384.939819,344.100555 390.395020,343.837128 
	C393.122528,343.705444 394.159454,344.922699 394.838867,347.291107 
	C396.754608,353.969360 398.828735,360.602142 400.841248,367.629272 
z"/>
<path fill="#6428E3" opacity="1.000000" stroke="none" 
	d="
M477.825409,479.950378 
	C482.249115,465.114594 486.672821,450.278809 491.663788,435.171265 
	C493.309540,434.585938 494.631378,434.569366 495.430359,433.914703 
	C509.108215,422.707428 522.636902,411.316406 536.399109,400.214752 
	C540.665649,396.773041 545.527954,394.070038 550.117554,391.028839 
	C545.205383,406.150421 540.293274,421.272034 534.805664,436.704041 
	C532.227905,438.109192 529.993408,438.920959 528.260315,440.343597 
	C514.314758,451.791168 500.517242,463.419495 486.535370,474.822052 
	C483.954437,476.926788 480.744843,478.260651 477.825409,479.950378 
z"/>
<path fill="#7026E1" opacity="1.000000" stroke="none" 
	d="
M550.363037,390.769836 
	C545.527954,394.070038 540.665649,396.773041 536.399109,400.214752 
	C522.636902,411.316406 509.108215,422.707428 495.430359,433.914703 
	C494.631378,434.569366 493.309540,434.585938 491.823669,434.855804 
	C495.674072,420.693726 499.931824,406.575317 504.766785,392.168091 
	C507.176636,390.799072 509.184265,389.933594 510.814667,388.605103 
	C525.677002,376.495117 540.517700,364.357513 555.251038,352.091309 
	C558.088867,349.728729 560.430298,346.770020 563.000793,344.086304 
	C563.459045,345.144318 564.541077,346.394684 564.282898,347.231628 
	C559.822693,361.688263 555.197571,376.093964 550.363037,390.769836 
z"/>
<path fill="#7E22DE" opacity="1.000000" stroke="none" 
	d="
M188.296783,602.460815 
	C191.201477,600.499390 194.347687,599.405457 196.780334,597.431946 
	C210.756577,586.093567 224.544144,574.522888 238.451233,563.098633 
	C240.336075,561.550293 242.532486,560.381287 244.891876,559.008728 
	C245.300995,569.684021 245.402863,580.387268 245.043640,591.561401 
	C243.520905,592.471863 242.278091,592.689209 241.424850,593.384583 
	C229.679413,602.957397 217.964584,612.568298 206.321548,622.265137 
	C205.267700,623.142822 204.760803,624.677307 203.999908,625.906738 
	C198.915131,625.906738 193.830353,625.906738 188.208694,625.906738 
	C188.208694,618.040955 188.208694,610.481445 188.296783,602.460815 
z"/>
<path fill="#B21ED6" opacity="1.000000" stroke="none" 
	d="
M245.384445,431.596375 
	C241.693680,434.342133 237.914963,436.340088 234.663696,438.986084 
	C220.836182,450.239624 207.184708,461.709259 193.401398,473.017670 
	C192.215942,473.990234 190.534622,474.358398 188.726913,475.012695 
	C188.309113,465.315338 188.248016,455.612549 188.277496,445.447815 
	C191.707489,443.010376 195.357117,441.416138 198.333572,438.994507 
	C212.407379,427.544098 226.280380,415.847137 240.281693,404.306854 
	C241.513565,403.291534 243.155884,402.774200 244.919098,401.993286 
	C245.333481,411.689575 245.436310,421.418152 245.384445,431.596375 
z"/>
<path fill="#3630EB" opacity="1.000000" stroke="none" 
	d="
M589.066406,497.467712 
	C594.334534,493.258942 599.667297,489.685699 604.698364,485.728729 
	C612.246033,479.792358 619.547058,473.543030 627.047424,467.544922 
	C628.114380,466.691711 629.711914,466.502136 631.434937,466.005005 
	C631.856201,479.030426 631.906494,492.056244 631.523438,505.553589 
	C629.465820,506.786346 627.603516,507.256073 626.256165,508.356445 
	C617.914124,515.169189 609.797485,522.261414 601.373474,528.968750 
	C597.571899,531.995605 593.234741,534.349731 589.140625,537.009033 
	C589.092407,523.983215 589.044189,510.957367 589.066406,497.467712 
z"/>
<path fill="#7026E1" opacity="1.000000" stroke="none" 
	d="
M436.452148,484.435852 
	C433.003113,487.074371 429.225464,489.019348 425.979126,491.626007 
	C413.632294,501.539886 401.457062,511.667511 389.023865,522.014954 
	C385.501190,512.823181 382.172363,503.331665 379.172791,493.401337 
	C380.931519,492.151062 382.514435,491.526520 383.766113,490.498627 
	C393.964386,482.123505 404.030884,473.586670 414.289764,465.287231 
	C418.474335,461.901917 423.035034,458.981537 427.424591,455.849609 
	C430.405579,465.248474 433.386566,474.647308 436.452148,484.435852 
z"/>
<path fill="#8421DD" opacity="1.000000" stroke="none" 
	d="
M361.122192,442.376038 
	C364.856110,439.385864 368.774017,436.987518 372.307617,434.116180 
	C384.083344,424.547638 395.700378,414.783997 407.452087,405.185516 
	C408.372253,404.433899 409.863495,404.381470 411.460693,404.003967 
	C414.481415,412.421997 417.130768,420.840149 419.456970,429.682983 
	C409.143036,438.184753 399.089447,446.185760 389.184509,454.366821 
	C382.977325,459.493652 376.993713,464.891174 370.909790,470.167236 
	C367.649902,461.028534 364.390045,451.889862 361.122192,442.376038 
z"/>
<path fill="#3630EB" opacity="1.000000" stroke="none" 
	d="
M422.950012,621.426514 
	C426.573517,618.561035 430.430023,616.361694 433.816833,613.588623 
	C451.423767,599.172607 468.891144,584.586304 486.487885,570.157654 
	C487.573456,569.267517 489.349609,569.219543 491.005829,569.051514 
	C485.345490,587.417480 479.527771,605.526245 473.515198,623.570068 
	C473.146606,624.676270 471.246277,625.979370 470.045013,625.993103 
	C455.761322,626.155945 441.473907,625.992859 427.190277,626.158386 
	C423.814209,626.197510 423.583008,624.031860 422.950012,621.426514 
z"/>
<path fill="#5C28E4" opacity="1.000000" stroke="none" 
	d="
M477.587952,480.219238 
	C480.744843,478.260651 483.954437,476.926788 486.535370,474.822052 
	C500.517242,463.419495 514.314758,451.791168 528.260315,440.343597 
	C529.993408,438.920959 532.227905,438.109192 534.594360,437.007446 
	C530.930176,449.468231 526.901733,461.935974 522.706909,474.688507 
	C517.783203,478.059601 512.726868,480.773224 508.325348,484.303284 
	C495.931366,494.243378 483.826599,504.543549 471.545197,514.625427 
	C470.312500,515.637390 468.652313,516.128540 466.799469,516.836975 
	C470.055786,504.704376 473.703125,492.596222 477.587952,480.219238 
z"/>
<path fill="#1636F1" opacity="1.000000" stroke="none" 
	d="
M631.011841,625.895264 
	C617.160583,625.895264 603.309265,625.895264 588.993469,625.895264 
	C588.993469,618.738159 588.993469,611.834106 589.423645,604.458252 
	C590.623047,603.733582 591.553833,603.677734 592.137451,603.198792 
	C602.063660,595.053101 611.854797,586.739441 621.896423,578.739868 
	C624.848694,576.387939 628.483643,574.892822 631.805664,573.005005 
	C631.855286,590.034241 631.904968,607.063416 631.712769,624.665405 
	C631.259888,625.416687 631.106812,625.635681 631.011841,625.895264 
z"/>
<path fill="#2634EE" opacity="1.000000" stroke="none" 
	d="
M589.069824,537.472351 
	C593.234741,534.349731 597.571899,531.995605 601.373474,528.968750 
	C609.797485,522.261414 617.914124,515.169189 626.256165,508.356445 
	C627.603516,507.256073 629.465820,506.786346 631.448120,506.017395 
	C631.854919,518.032837 631.903748,530.056030 631.507629,542.543091 
	C629.841736,543.387451 628.361938,543.449524 627.440430,544.198486 
	C619.397522,550.735291 611.558472,557.525879 603.441406,563.967041 
	C598.887573,567.580688 593.922974,570.676575 589.143433,574.005737 
	C589.095337,561.982361 589.047180,549.959045 589.069824,537.472351 
z"/>
<path fill="#7A23DF" opacity="1.000000" stroke="none" 
	d="
M370.925751,470.545593 
	C376.993713,464.891174 382.977325,459.493652 389.184509,454.366821 
	C399.089447,446.185760 409.143036,438.184753 419.464203,430.056183 
	C422.311615,438.350220 424.828644,446.695709 427.385132,455.445404 
	C423.035034,458.981537 418.474335,461.901917 414.289764,465.287231 
	C404.030884,473.586670 393.964386,482.123505 383.766113,490.498627 
	C382.514435,491.526520 380.931519,492.151062 379.137482,493.011841 
	C376.162476,485.682037 373.552094,478.302979 370.925751,470.545593 
z"/>
<path fill="#3132EC" opacity="1.000000" stroke="none" 
	d="
M839.536865,343.996704 
	C835.328125,348.387390 830.818787,352.891022 825.954590,356.971558 
	C811.614197,369.001587 797.184387,380.926971 782.665100,392.740265 
	C779.682556,395.166931 776.159790,396.929688 772.512390,398.999695 
	C777.390930,381.847351 782.739075,364.722015 787.807129,347.514221 
	C788.720276,344.413635 790.255066,343.823212 793.110657,343.844696 
	C808.431152,343.960052 823.752808,343.909515 839.536865,343.996704 
z"/>
<path fill="#1D35F0" opacity="1.000000" stroke="none" 
	d="
M589.070312,574.468994 
	C593.922974,570.676575 598.887573,567.580688 603.441406,563.967041 
	C611.558472,557.525879 619.397522,550.735291 627.440430,544.198486 
	C628.361938,543.449524 629.841736,543.387451 631.432617,543.006714 
	C631.853149,552.696716 631.903687,562.387024 631.880005,572.541138 
	C628.483643,574.892822 624.848694,576.387939 621.896423,578.739868 
	C611.854797,586.739441 602.063660,595.053101 592.137451,603.198792 
	C591.553833,603.677734 590.623047,603.733582 589.497437,603.994995 
	C589.093140,594.313171 589.045227,584.622681 589.070312,574.468994 
z"/>
<path fill="#7A23DF" opacity="1.000000" stroke="none" 
	d="
M562.537598,344.008301 
	C560.430298,346.770020 558.088867,349.728729 555.251038,352.091309 
	C540.517700,364.357513 525.677002,376.495117 510.814667,388.605103 
	C509.184265,389.933594 507.176636,390.799072 504.963989,391.869415 
	C509.101044,376.751434 513.538452,361.618225 518.283020,346.581940 
	C518.671997,345.349335 521.141846,344.036011 522.663147,344.013885 
	C535.797852,343.822693 548.936707,343.919434 562.537598,344.008301 
z"/>
<path fill="#B21ED6" opacity="1.000000" stroke="none" 
	d="
M267.462128,382.945557 
	C269.921997,379.855225 272.608398,376.550507 275.814178,373.866028 
	C286.300140,365.085114 296.991180,356.549408 307.551147,347.855927 
	C308.526978,347.052582 309.131470,345.798126 309.952423,344.414062 
	C311.480682,344.075012 312.964935,344.075012 314.779175,344.075012 
	C314.779175,356.912598 314.779175,369.647827 314.779175,383.015167 
	C299.106049,383.015167 283.516296,383.015167 267.462128,382.945557 
z"/>
<path fill="#6428E3" opacity="1.000000" stroke="none" 
	d="
M634.538879,344.009491 
	C632.914612,346.314911 631.022766,348.772034 628.707214,350.727386 
	C616.585754,360.963226 604.364746,371.081299 592.141113,381.195282 
	C591.558105,381.677704 590.621399,381.732819 589.493652,381.995819 
	C589.137939,369.538788 589.137939,357.072845 589.137939,343.929688 
	C604.233215,343.929688 619.154541,343.929688 634.538879,344.009491 
z"/>
<path fill="#7A23DF" opacity="1.000000" stroke="none" 
	d="
M204.463501,625.981934 
	C204.760803,624.677307 205.267700,623.142822 206.321548,622.265137 
	C217.964584,612.568298 229.679413,602.957397 241.424850,593.384583 
	C242.278091,592.689209 243.520905,592.471863 244.894165,592.002686 
	C245.205734,603.086182 245.205734,614.199158 245.205734,626.057068 
	C231.706955,626.057068 218.317017,626.057068 204.463501,625.981934 
z"/>
<path fill="#A71BD7" opacity="1.000000" stroke="none" 
	d="
M373.539429,344.010071 
	C372.826202,345.734100 371.932678,347.723633 370.426453,348.976776 
	C359.932800,357.707550 349.312164,366.285706 338.390198,374.956940 
	C334.432159,364.913757 330.816132,354.826385 326.911774,343.934784 
	C342.797363,343.934784 357.936462,343.934784 373.539429,344.010071 
z"/>
<path fill="#1D35F0" opacity="1.000000" stroke="none" 
	d="
M631.271484,625.915527 
	C631.106812,625.635681 631.259888,625.416687 631.642334,625.130859 
	C631.719421,625.327576 631.625244,625.631714 631.271484,625.915527 
z"/>
</svg>