<?xml version="1.0" standalone="no"?>
<!DOCTYPE svg PUBLIC "-//W3C//DTD SVG 20010904//EN"
 "http://www.w3.org/TR/2001/REC-SVG-20010904/DTD/svg10.dtd">
<svg version="1.0" xmlns="http://www.w3.org/2000/svg"
 width="659.000000pt" height="436.000000pt" viewBox="0 0 659.000000 436.000000"
 preserveAspectRatio="xMidYMid meet">
<metadata>
Created by potrace 1.15, written by Peter Selinger 2001-2017
</metadata>
<g transform="translate(0.000000,436.000000) scale(0.100000,-0.100000)"
fill="#000000" stroke="none">
<path d="M78 4334 c-62 -33 -58 126 -58 -2149 0 -2282 -5 -2117 60 -2150 26
-13 387 -15 3220 -15 2833 0 3194 2 3220 15 65 33 60 -132 60 2150 0 2282 5
2117 -60 2150 -26 13 -387 15 -3222 15 -2805 -1 -3196 -3 -3220 -16z m1180
-1961 c-3 -37 -4 -38 -43 -38 -34 0 -40 3 -43 23 -6 41 5 52 48 52 l41 0 -3
-37z m238 22 c4 -8 3 -26 0 -40 -6 -23 -11 -25 -66 -25 l-60 0 0 -155 c0 -169
-4 -180 -56 -157 l-24 12 0 174 c0 96 3 181 6 190 9 23 192 24 200 1z m270 0
c4 -8 3 -26 0 -40 -6 -22 -11 -25 -55 -25 l-49 0 35 -87 c19 -49 38 -91 41
-95 4 -4 31 54 60 128 l54 134 33 0 c19 0 36 -4 39 -9 5 -8 -116 -318 -144
-371 -11 -20 -45 -26 -67 -12 -16 10 -164 373 -157 384 3 4 50 8 105 8 79 0
101 -3 105 -15z m384 -60 c30 -41 57 -74 60 -74 3 0 30 33 60 75 52 71 56 75
90 72 l35 -3 0 -190 0 -190 -35 0 -35 0 -3 123 -3 124 -51 -66 c-27 -36 -54
-66 -58 -66 -6 0 -161 200 -184 238 -12 19 3 32 37 32 28 0 39 -10 87 -75z
m828 38 l-3 -38 -140 0 c-139 0 -140 0 -143 23 -7 50 -3 52 148 52 l141 0 -3
-37z m177 -33 c0 -60 -2 -65 -23 -68 -37 -6 -52 15 -52 73 0 61 4 67 45 63
l30 -3 0 -65z m307 -57 l93 -128 3 128 3 127 34 0 35 0 0 -196 0 -195 -37 3
c-36 3 -43 10 -171 185 -73 101 -131 187 -127 193 3 5 21 10 40 10 31 0 39 -8
127 -127z m574 -52 c41 -96 74 -183 74 -193 0 -17 -13 -18 -190 -18 -175 0
-190 1 -190 18 0 10 7 28 16 40 14 21 22 22 135 22 65 0 119 2 119 4 0 2 -18
46 -39 97 l-39 94 -31 -70 c-43 -97 -45 -100 -76 -103 -48 -6 -51 11 -15 95
90 212 78 194 123 191 l39 -3 74 -174z m339 55 l90 -124 5 122 5 121 35 0 35
0 0 -190 0 -190 -36 -3 -37 -3 -131 180 c-72 98 -131 186 -131 195 0 12 10 16
38 16 36 0 40 -4 127 -124z m453 88 c3 -27 -2 -35 -31 -53 -40 -25 -57 -58
-57 -113 0 -45 35 -102 70 -113 14 -4 20 -15 20 -34 0 -39 -16 -52 -49 -38
-83 37 -121 97 -121 191 0 85 33 141 105 179 42 23 59 17 63 -19z m112 16 c22
-11 51 -38 65 -60 29 -46 31 -56 9 -64 -31 -12 -54 -6 -70 19 -9 14 -32 32
-50 40 -28 11 -34 20 -34 43 0 49 18 54 80 22z m488 -17 l-3 -38 -142 -3 -142
-3 -7 26 c-13 53 -7 55 151 55 l146 0 -3 -37z m-2473 -163 l0 -35 -92 -3 -93
-3 0 -59 c0 -79 -5 -90 -46 -90 l-34 0 0 108 c0 60 3 112 7 116 4 3 63 5 132
4 l126 -3 0 -35z m203 -72 l-3 -113 -35 0 -35 0 -3 99 c-1 55 0 106 2 113 3 7
21 13 41 13 l36 0 -3 -112z m2250 78 c2 -16 -2 -32 -10 -37 -21 -14 -242 -11
-256 3 -13 13 -16 51 -5 62 4 3 66 5 137 4 l131 -3 3 -29z m-1128 -75 c11 -22
13 -80 4 -105 -4 -10 -18 -16 -40 -16 l-34 0 0 63 c0 35 3 67 7 70 13 14 53 6
63 -12z m745 9 c18 -30 -77 -127 -130 -132 -28 -3 -30 -1 -33 33 -3 33 0 38
26 47 16 6 38 22 48 36 20 26 76 37 89 16z m-2927 -44 c6 -68 -4 -86 -43 -86
l-35 0 0 66 0 65 38 -3 c35 -3 37 -5 40 -42z m1270 -18 l-3 -63 -35 0 c-35 0
-35 0 -38 49 -4 66 1 76 43 76 l36 0 -3 -62z m2060 -31 l3 -38 -148 3 c-146 3
-148 3 -151 26 -7 47 10 53 157 50 l136 -3 3 -38z"/>
</g>
</svg>
