<?xml version="1.0" encoding="UTF-8"?>
<svg version="1.1" xmlns="http://www.w3.org/2000/svg" width="968" height="968">
<path d="M0 0 C1.27417786 -0.00705963 2.54835571 -0.01411926 3.86114502 -0.02139282 C7.95170669 -0.04092196 12.04220858 -0.04608484 16.1328125 -0.046875 C17.17844486 -0.04731686 17.17844486 -0.04731686 18.24520111 -0.04776764 C38.73066318 -0.04916677 58.9541299 0.13128953 79.2578125 3.203125 C80.6783135 3.40967488 82.09889039 3.61570335 83.51953125 3.82128906 C133.47392337 11.13262077 181.74737924 25.1936106 227.2578125 47.203125 C228.2777832 47.69458008 229.29775391 48.18603516 230.34863281 48.69238281 C243.33432344 54.98099973 255.98382311 61.6181074 268.2578125 69.203125 C269.00836914 69.66154785 269.75892578 70.1199707 270.53222656 70.59228516 C298.47692192 87.68888449 326.60919679 107.82104283 349.46875 131.41015625 C351.32698286 133.27244638 353.26255075 134.98904879 355.2578125 136.703125 C361.39504017 141.99963655 366.95242593 147.74536748 372.2265625 153.89453125 C374.25906889 156.20455294 376.35547372 158.44628761 378.46533203 160.68554688 C384.64669636 167.26804437 390.2942483 174.12317036 395.77880859 181.29150391 C397.32892167 183.29503402 398.90890366 185.27182984 400.49609375 187.24609375 C413.80531969 203.89644429 425.68330668 221.69526219 436.2578125 240.203125 C436.6300293 240.84749512 437.00224609 241.49186523 437.38574219 242.15576172 C476.21917871 309.59058821 501.17177202 388.70917788 501.4609375 466.9453125 C501.46799713 468.21949036 501.47505676 469.49366821 501.48233032 470.80645752 C501.50185946 474.89701919 501.50702234 478.98752108 501.5078125 483.078125 C501.50825436 484.12375736 501.50825436 484.12375736 501.50870514 485.19051361 C501.51010427 505.67597568 501.32964797 525.8994424 498.2578125 546.203125 C498.05126262 547.623626 497.84523415 549.04420289 497.63964844 550.46484375 C490.32831673 600.41923587 476.2673269 648.69269174 454.2578125 694.203125 C453.76635742 695.2230957 453.27490234 696.24306641 452.76855469 697.29394531 C446.47993777 710.27963594 439.8428301 722.92913561 432.2578125 735.203125 C431.79938965 735.95368164 431.3409668 736.70423828 430.86865234 737.47753906 C413.77205301 765.42223442 393.63989467 793.55450929 370.05078125 816.4140625 C368.18849112 818.27229536 366.47188871 820.20786325 364.7578125 822.203125 C359.46130095 828.34035267 353.71557002 833.89773843 347.56640625 839.171875 C345.25638456 841.20438139 343.01464989 843.30078622 340.77539062 845.41064453 C334.19289313 851.59200886 327.33776714 857.2395608 320.16943359 862.72412109 C318.16590348 864.27423417 316.18910766 865.85421616 314.21484375 867.44140625 C297.56449321 880.75063219 279.76567531 892.62861918 261.2578125 903.203125 C260.61344238 903.5753418 259.96907227 903.94755859 259.30517578 904.33105469 C191.87034929 943.16449121 112.75175962 968.11708452 34.515625 968.40625 C33.24144714 968.41330963 31.96726929 968.42036926 30.65447998 968.42764282 C26.56391831 968.44717196 22.47341642 968.45233484 18.3828125 968.453125 C17.33718014 968.45356686 17.33718014 968.45356686 16.27042389 968.45401764 C-4.21503818 968.45541677 -24.4385049 968.27496047 -44.7421875 965.203125 C-46.1626885 964.99657512 -47.58326539 964.79054665 -49.00390625 964.58496094 C-98.95829837 957.27362923 -147.23175424 943.2126394 -192.7421875 921.203125 C-193.7621582 920.71166992 -194.78212891 920.22021484 -195.83300781 919.71386719 C-208.81869844 913.42525027 -221.46819811 906.7881426 -233.7421875 899.203125 C-234.49274414 898.74470215 -235.24330078 898.2862793 -236.01660156 897.81396484 C-263.96129692 880.71736551 -292.09357179 860.58520717 -314.953125 836.99609375 C-316.81135786 835.13380362 -318.74692575 833.41720121 -320.7421875 831.703125 C-326.87941517 826.40661345 -332.43680093 820.66088252 -337.7109375 814.51171875 C-339.74344389 812.20169706 -341.83984872 809.95996239 -343.94970703 807.72070312 C-350.13107136 801.13820563 -355.7786233 794.28307964 -361.26318359 787.11474609 C-362.81329667 785.11121598 -364.39327866 783.13442016 -365.98046875 781.16015625 C-379.28969469 764.50980571 -391.16768168 746.71098781 -401.7421875 728.203125 C-402.1144043 727.55875488 -402.48662109 726.91438477 -402.87011719 726.25048828 C-441.70355371 658.81566179 -466.65614702 579.69707212 -466.9453125 501.4609375 C-466.95237213 500.18675964 -466.95943176 498.91258179 -466.96670532 497.59979248 C-466.98623446 493.50923081 -466.99139734 489.41872892 -466.9921875 485.328125 C-466.99248207 484.63103676 -466.99277664 483.93394852 -466.99308014 483.21573639 C-466.99447927 462.73027432 -466.81402297 442.5068076 -463.7421875 422.203125 C-463.53563762 420.782624 -463.32960915 419.36204711 -463.12402344 417.94140625 C-455.81269173 367.98701413 -441.7517019 319.71355826 -419.7421875 274.203125 C-419.25073242 273.1831543 -418.75927734 272.16318359 -418.25292969 271.11230469 C-411.96431277 258.12661406 -405.3272051 245.47711439 -397.7421875 233.203125 C-397.28376465 232.45256836 -396.8253418 231.70201172 -396.35302734 230.92871094 C-379.25642801 202.98401558 -359.12426967 174.85174071 -335.53515625 151.9921875 C-333.67286612 150.13395464 -331.95626371 148.19838675 -330.2421875 146.203125 C-324.94567595 140.06589733 -319.19994502 134.50851157 -313.05078125 129.234375 C-310.74075956 127.20186861 -308.49902489 125.10546378 -306.25976562 122.99560547 C-299.67726813 116.81424114 -292.82214214 111.1666892 -285.65380859 105.68212891 C-283.65027848 104.13201583 -281.67348266 102.55203384 -279.69921875 100.96484375 C-263.04886821 87.65561781 -245.25005031 75.77763082 -226.7421875 65.203125 C-225.77563232 64.6447998 -225.77563232 64.6447998 -224.78955078 64.07519531 C-157.35472429 25.24175879 -78.23613462 0.28916548 0 0 Z " fill="#E9DDF9" transform="translate(466.7421875,-0.203125)"/>
<path d="M0 0 C23.43 0 46.86 0 71 0 C80 27 80 27 84 40 C89.33708549 57.18999928 94.78578245 74.3447596 100.2578125 91.4921875 C100.61151476 92.60064466 100.61151476 92.60064466 100.97236252 93.7314949 C103.19037112 100.68221521 105.40892382 107.63276172 107.62841797 114.58300781 C108.85489635 118.42377721 110.08070609 122.26475951 111.30611801 126.10586929 C111.76587955 127.54657042 112.22588491 128.98719376 112.68616104 130.42773056 C115.51101433 139.26896076 118.287726 148.12344832 121 157 C125.83879966 172.71775613 130.93723694 188.35333546 136 204 C138.23079785 198.1433132 140.31977593 192.25419213 142.3125 186.3125 C142.58255859 185.52294922 142.85261719 184.73339844 143.13085938 183.91992188 C145.09033493 178.0772032 146.81011639 172.18468177 148.4765625 166.25390625 C152.85638546 150.72685931 157.6778902 135.33005291 162.43188477 119.91455078 C163.79479025 115.4950955 165.15421217 111.07457781 166.51258183 106.65372658 C167.57602525 103.19395906 168.64119733 99.73472558 169.70687675 96.27564621 C170.20843008 94.64703857 170.70950243 93.01828271 171.21003914 91.38936234 C174.00990771 82.28166036 176.88925888 73.21097304 179.9453125 64.18571472 C181.42226757 59.72452833 182.69520472 55.218437 183.9375 50.6875 C185.99572781 43.32599429 188.25856253 36.0758356 190.73876953 28.84667969 C193.11210598 21.8501026 195.12101965 14.76000973 197.08398438 7.63867188 C197.43879883 6.3615332 197.43879883 6.3615332 197.80078125 5.05859375 C198.00872314 4.29861084 198.21666504 3.53862793 198.4309082 2.75561523 C199 1 199 1 200 0 C220.79 0 241.58 0 263 0 C263 93.06 263 186.12 263 282 C243.53 282 224.06 282 204 282 C203.67 224.58 203.34 167.16 203 108 C200.69 116.58 198.38 125.16 196 134 C192.5 145.5 192.5 145.5 190.75 151.15625 C188.8502403 157.39831759 187.16815563 163.69275196 185.5 170 C183.31953347 178.23941357 181.01852278 186.41990754 178.5 194.5625 C176.20972623 201.97401933 174.00930132 209.39938868 171.9375 216.875 C168.54445325 229.11090542 165.07745878 241.32529049 161.59475708 253.53594971 C160.94868739 255.80212398 160.30340224 258.06852206 159.65890503 260.33514404 C158.74590833 263.54560375 157.83032858 266.75531582 156.9140625 269.96484375 C156.63519699 270.94703384 156.35633148 271.92922394 156.0690155 272.94117737 C155.81114761 273.84222702 155.55327972 274.74327667 155.28759766 275.67163086 C155.06222321 276.46226425 154.83684875 277.25289764 154.60464478 278.06748962 C154 280 154 280 153 282 C133.53 282 114.06 282 94 282 C92.71590877 278.14772631 91.52577117 274.40763673 90.484375 270.5 C90.2059375 269.45972656 89.9275 268.41945313 89.640625 267.34765625 C89.34671875 266.24292969 89.0528125 265.13820313 88.75 264 C88.12010052 261.64575068 87.4898874 259.29158525 86.859375 256.9375 C86.54548828 255.76445313 86.23160156 254.59140625 85.90820312 253.3828125 C84.61998623 248.58455087 83.31152765 243.79193262 82 239 C79.83722383 231.08786189 77.6937461 223.17068918 75.5625 215.25 C75.27060791 214.16565674 74.97871582 213.08131348 74.67797852 211.96411133 C73.18459098 206.41343471 71.69512791 200.86173678 70.2109375 195.30859375 C67.2808172 184.36186379 64.28639898 173.44226952 61.13085938 162.55834961 C59.19512547 155.82285191 57.48621743 149.04415165 55.82373047 142.23681641 C54.5192097 136.94236605 53.06961824 131.72228126 51.5 126.5 C48.72815566 117.07572926 46.38253449 107.53013795 44 98 C43.67 158.72 43.34 219.44 43 282 C28.81 282 14.62 282 0 282 C0 188.94 0 95.88 0 0 Z " fill="#2733ED" transform="translate(588,343)"/>
<path d="M0 0 C22.11 0 44.22 0 67 0 C72.61993243 16.8597973 72.61993243 16.8597973 74.4375 23.8125 C76.09071213 29.95224281 77.94230927 35.98405341 80 42 C82.03661527 47.95472437 83.86447939 53.92285388 85.5 60 C87.34945207 66.86609081 89.47786131 73.59218341 91.76953125 80.32250977 C93.70035417 86.02029395 95.43747348 91.75593129 97.10546875 97.53540039 C98.8610989 103.59553932 100.7462775 109.60995773 102.68164062 115.61499023 C104.29264768 120.64825277 105.80083591 125.70825538 107.28125 130.78125 C110.23541985 140.89106319 113.36756367 150.94428084 116.5 161 C120.0983684 172.55145014 123.65731967 184.10903135 127.03710938 195.7265625 C127.65543681 197.82862493 128.30710785 199.92132355 129 202 C131.18082608 196.33445274 133.11124257 190.64280634 134.890625 184.83984375 C135.15601578 183.98109146 135.42140656 183.12233917 135.69483948 182.23756409 C136.54893601 179.47160256 137.39954857 176.70458423 138.25 173.9375 C138.84057418 172.02208461 139.43131385 170.10672024 140.0222168 168.19140625 C143.50476848 156.89565741 146.96563685 145.59340691 150.39453125 134.28125 C152.24495004 128.18193595 154.12279977 122.09111439 156 116 C159.40465888 104.94954797 162.78034965 93.89053175 166.14111328 82.82666016 C167.5923362 78.05057745 169.04632041 73.27533543 170.5 68.5 C171.08334628 66.58333727 171.66667962 64.66667061 172.25 62.75 C175.75 51.25000001 175.75 51.25000001 176.62597656 48.37182617 C177.20608062 46.46574683 177.78615898 44.55965966 178.36621094 42.65356445 C179.8737355 37.69984551 181.38178034 32.74628578 182.890625 27.79296875 C183.20193359 26.77074219 183.51324219 25.74851562 183.83398438 24.6953125 C184.42366022 22.75906344 185.01349158 20.82286173 185.60351562 18.88671875 C185.87357422 17.99984375 186.14363281 17.11296875 186.421875 16.19921875 C186.68291016 15.34376465 186.94394531 14.48831055 187.21289062 13.60693359 C187.76163985 11.78945711 188.30131141 9.96922566 188.83398438 8.14697266 C189.10017578 7.23866699 189.36636719 6.33036133 189.640625 5.39453125 C189.87813477 4.5744458 190.11564453 3.75436035 190.36035156 2.90942383 C191 1 191 1 192 0 C193.47354348 -0.09304018 194.95150591 -0.11746265 196.42797852 -0.11352539 C197.36887833 -0.11344986 198.30977814 -0.11337433 199.27919006 -0.11329651 C200.30209641 -0.10813522 201.32500275 -0.10297394 202.37890625 -0.09765625 C203.42070541 -0.0962413 204.46250458 -0.09482635 205.53587341 -0.09336853 C208.87811094 -0.0877508 212.22028257 -0.0751953 215.5625 -0.0625 C217.82226466 -0.05748728 220.08203037 -0.05292398 222.34179688 -0.04882812 C227.89455391 -0.03777561 233.44727225 -0.02102024 239 0 C231.1543941 24.36337036 223.18024961 48.68459617 215.1875 73 C214.92509773 73.7983086 214.66269547 74.5966172 214.39234161 75.41911697 C207.63291112 95.98139013 200.8443287 116.53333075 193.97674561 137.05978394 C189.40345759 150.73178399 184.91993144 164.43099352 180.47546387 178.14535522 C172.57419171 202.51027871 164.42927293 226.79463141 156.30957031 251.08740234 C152.86662196 261.38946042 149.43372907 271.69486597 146 282 C129.83 282 113.66 282 97 282 C86.1088785 250.52122759 75.25465244 219.03015199 64.44589615 187.52301693 C63.23092539 183.98146728 62.01588443 180.43994172 60.80078125 176.8984375 C60.56053223 176.19820528 60.3202832 175.49797306 60.07275391 174.77652168 C54.00572038 157.09461109 47.91871472 139.4195826 41.830019 121.74512196 C37.92156217 110.39925003 34.01391093 99.0531464 30.12890625 87.69921875 C29.84225601 86.86170074 29.55560577 86.02418274 29.26026917 85.1612854 C27.99183274 81.45447175 26.72471017 77.74721907 25.46020508 74.0390625 C23.03586723 66.92134983 23.03586723 66.92134983 20.4453125 59.86328125 C18.05667414 53.60458136 16.05519242 47.20524614 13.9609375 40.84375 C13.62320312 39.8228125 13.28546875 38.801875 12.9375 37.75 C12.63714844 36.83734375 12.33679688 35.9246875 12.02734375 34.984375 C10.75797898 31.29694275 9.36931135 27.65149695 8 24 C5.36 16.08 2.72 8.16 0 0 Z " fill="#6B26E1" transform="translate(326,343)"/>
<path d="M0 0 C65.01 0 130.02 0 197 0 C197 12.87 197 25.74 197 39 C174.23 39 151.46 39 128 39 C128 119.19 128 199.38 128 282 C108.86 282 89.72 282 70 282 C70 201.81 70 121.62 70 39 C46.9 39 23.8 39 0 39 C0 26.13 0 13.26 0 0 Z " fill="#AC1AD5" transform="translate(117,343)"/>
</svg>
